<?xml version="1.0" standalone="no"?>
<svg xmlns:xlink="http://www.w3.org/1999/xlink" id="wave" style="transform:rotate(180deg); transition: 0.3s" viewBox="0 0 1440 150" version="1.1" xmlns="http://www.w3.org/2000/svg"><defs><linearGradient id="sw-gradient-0" x1="0" x2="0" y1="1" y2="0"><stop stop-color="rgba(255, 255, 255, 1)" offset="0%"/><stop stop-color="rgba(0, 229.086, 255, 1)" offset="100%"/></linearGradient></defs><path style="transform:translate(0, 0px); opacity:1" fill="url(#sw-gradient-0)" d="M0,45L20,60C40,75,80,105,120,115C160,125,200,115,240,107.5C280,100,320,95,360,82.5C400,70,440,50,480,45C520,40,560,50,600,62.5C640,75,680,90,720,90C760,90,800,75,840,80C880,85,920,110,960,100C1000,90,1040,45,1080,32.5C1120,20,1160,40,1200,55C1240,70,1280,80,1320,92.5C1360,105,1400,120,1440,120C1480,120,1520,105,1560,102.5C1600,100,1640,110,1680,112.5C1720,115,1760,110,1800,110C1840,110,1880,115,1920,102.5C1960,90,2000,60,2040,47.5C2080,35,2120,40,2160,45C2200,50,2240,55,2280,70C2320,85,2360,110,2400,100C2440,90,2480,45,2520,27.5C2560,10,2600,20,2640,20C2680,20,2720,10,2760,5C2800,0,2840,0,2860,0L2880,0L2880,150L2860,150C2840,150,2800,150,2760,150C2720,150,2680,150,2640,150C2600,150,2560,150,2520,150C2480,150,2440,150,2400,150C2360,150,2320,150,2280,150C2240,150,2200,150,2160,150C2120,150,2080,150,2040,150C2000,150,1960,150,1920,150C1880,150,1840,150,1800,150C1760,150,1720,150,1680,150C1640,150,1600,150,1560,150C1520,150,1480,150,1440,150C1400,150,1360,150,1320,150C1280,150,1240,150,1200,150C1160,150,1120,150,1080,150C1040,150,1000,150,960,150C920,150,880,150,840,150C800,150,760,150,720,150C680,150,640,150,600,150C560,150,520,150,480,150C440,150,400,150,360,150C320,150,280,150,240,150C200,150,160,150,120,150C80,150,40,150,20,150L0,150Z"/></svg>