<?xml version="1.0" standalone="no"?>
<svg xmlns:xlink="http://www.w3.org/1999/xlink" id="wave" style="transform:rotate(180deg); transition: 0.3s" viewBox="0 0 1440 290" version="1.1" xmlns="http://www.w3.org/2000/svg"><defs><linearGradient id="sw-gradient-0" x1="0" x2="0" y1="1" y2="0"><stop stop-color="rgba(59, 183, 214, 1)" offset="0%"/><stop stop-color="rgba(151, 89, 252, 1)" offset="100%"/></linearGradient></defs><path style="transform:translate(0, 0px); opacity:1" fill="url(#sw-gradient-0)" d="M0,116L26.7,111.2C53.3,106,107,97,160,120.8C213.3,145,267,203,320,207.8C373.3,213,427,164,480,154.7C533.3,145,587,174,640,193.3C693.3,213,747,222,800,207.8C853.3,193,907,155,960,149.8C1013.3,145,1067,174,1120,198.2C1173.3,222,1227,242,1280,217.5C1333.3,193,1387,126,1440,116C1493.3,106,1547,155,1600,154.7C1653.3,155,1707,106,1760,91.8C1813.3,77,1867,97,1920,106.3C1973.3,116,2027,116,2080,96.7C2133.3,77,2187,39,2240,33.8C2293.3,29,2347,58,2400,91.8C2453.3,126,2507,164,2560,149.8C2613.3,135,2667,68,2720,38.7C2773.3,10,2827,19,2880,43.5C2933.3,68,2987,106,3040,125.7C3093.3,145,3147,145,3200,149.8C3253.3,155,3307,164,3360,149.8C3413.3,135,3467,97,3520,72.5C3573.3,48,3627,39,3680,43.5C3733.3,48,3787,68,3813,77.3L3840,87L3840,290L3813.3,290C3786.7,290,3733,290,3680,290C3626.7,290,3573,290,3520,290C3466.7,290,3413,290,3360,290C3306.7,290,3253,290,3200,290C3146.7,290,3093,290,3040,290C2986.7,290,2933,290,2880,290C2826.7,290,2773,290,2720,290C2666.7,290,2613,290,2560,290C2506.7,290,2453,290,2400,290C2346.7,290,2293,290,2240,290C2186.7,290,2133,290,2080,290C2026.7,290,1973,290,1920,290C1866.7,290,1813,290,1760,290C1706.7,290,1653,290,1600,290C1546.7,290,1493,290,1440,290C1386.7,290,1333,290,1280,290C1226.7,290,1173,290,1120,290C1066.7,290,1013,290,960,290C906.7,290,853,290,800,290C746.7,290,693,290,640,290C586.7,290,533,290,480,290C426.7,290,373,290,320,290C266.7,290,213,290,160,290C106.7,290,53,290,27,290L0,290Z"/><defs><linearGradient id="sw-gradient-1" x1="0" x2="0" y1="1" y2="0"><stop stop-color="rgba(203, 208, 137, 1)" offset="0%"/><stop stop-color="rgba(255, 179, 11, 1)" offset="100%"/></linearGradient></defs><path style="transform:translate(0, 50px); opacity:0.9" fill="url(#sw-gradient-1)" d="M0,203L26.7,169.2C53.3,135,107,68,160,43.5C213.3,19,267,39,320,72.5C373.3,106,427,155,480,174C533.3,193,587,184,640,183.7C693.3,184,747,193,800,207.8C853.3,222,907,242,960,236.8C1013.3,232,1067,203,1120,169.2C1173.3,135,1227,97,1280,72.5C1333.3,48,1387,39,1440,38.7C1493.3,39,1547,48,1600,82.2C1653.3,116,1707,174,1760,183.7C1813.3,193,1867,155,1920,145C1973.3,135,2027,155,2080,154.7C2133.3,155,2187,135,2240,149.8C2293.3,164,2347,213,2400,217.5C2453.3,222,2507,184,2560,183.7C2613.3,184,2667,222,2720,236.8C2773.3,251,2827,242,2880,203C2933.3,164,2987,97,3040,62.8C3093.3,29,3147,29,3200,29C3253.3,29,3307,29,3360,53.2C3413.3,77,3467,126,3520,159.5C3573.3,193,3627,213,3680,183.7C3733.3,155,3787,77,3813,38.7L3840,0L3840,290L3813.3,290C3786.7,290,3733,290,3680,290C3626.7,290,3573,290,3520,290C3466.7,290,3413,290,3360,290C3306.7,290,3253,290,3200,290C3146.7,290,3093,290,3040,290C2986.7,290,2933,290,2880,290C2826.7,290,2773,290,2720,290C2666.7,290,2613,290,2560,290C2506.7,290,2453,290,2400,290C2346.7,290,2293,290,2240,290C2186.7,290,2133,290,2080,290C2026.7,290,1973,290,1920,290C1866.7,290,1813,290,1760,290C1706.7,290,1653,290,1600,290C1546.7,290,1493,290,1440,290C1386.7,290,1333,290,1280,290C1226.7,290,1173,290,1120,290C1066.7,290,1013,290,960,290C906.7,290,853,290,800,290C746.7,290,693,290,640,290C586.7,290,533,290,480,290C426.7,290,373,290,320,290C266.7,290,213,290,160,290C106.7,290,53,290,27,290L0,290Z"/></svg>